# xmcd
#
# Track frame offsets:
#	150
#	52129
#	82576
#	115823
#	163219
#	190767
#	224931
#	263830
#	286070
#
# Disc length: 4173 seconds
#
# Revision: 1
# Processed by: cddbd v1.5.2PL0 Copyright (c) Steve Scherf et al.
# Submitted via: audiograbber 1.83.01
#
DISCID=82104b09
DTITLE=Grateful Dead - 82-09-05 Glen Helen Regional Park, Devore CA
DYEAR=1900
DGENRE=
TTITLE0=Sugaree
TTITLE1=Men Smart, Women Smarter
TTITLE2=Truckin'
TTITLE3=Drums - Space
TTITLE4=Not Fade Away
TTITLE5=Black Peter
TTITLE6=Sugar Magnolia
TTITLE7=US Blues
TTITLE8=Satisfaction
EXTD=
EXTT0=
EXTT1=
EXTT2=
EXTT3=
EXTT4=
EXTT5=
EXTT6=
EXTT7=
EXTT8=
PLAYORDER=
